<?xml version="1.0" encoding="utf-8"?><svg xmlns="http://www.w3.org/2000/svg" xmlns:xlink="http://www.w3.org/1999/xlink"><symbol viewBox="0 0 21 22" id="arrow-down" xmlns="http://www.w3.org/2000/svg"><path d="M19.363 9.43l1.04 1.04a1.12 1.12 0 010 1.59l-9.107 9.112a1.12 1.12 0 01-1.59 0L.595 12.059a1.12 1.12 0 010-1.589l1.04-1.04a1.126 1.126 0 011.609.018l5.38 5.649V1.625C8.624 1.002 9.126.5 9.75.5h1.5c.623 0 1.125.502 1.125 1.125v13.472l5.381-5.649a1.118 1.118 0 011.608-.018z"/></symbol><symbol viewBox="0 0 32 26" id="arrow-right" xmlns="http://www.w3.org/2000/svg"><path fill-rule="evenodd" clip-rule="evenodd" d="M.666 12.667a2 2 0 012-2h21.695l-7.524-7.224a2 2 0 112.77-2.885l11.11 10.666a2 2 0 010 2.886l-11.11 10.666a2 2 0 01-2.77-2.885l7.524-7.224H2.666a2 2 0 01-2-2z"/></symbol><symbol viewBox="0 0 23 23" id="arrow-right-2" xmlns="http://www.w3.org/2000/svg"><path d="M0 15.9V7.1h11.616V0L23 11.5 11.616 23v-7.1H0z"/></symbol><symbol viewBox="0 0 46 46" id="avana" xmlns="http://www.w3.org/2000/svg"><path d="M35.956 14.652c4.145.373 6.869 1.763 10 2.152-2.043 1.876-3.63 4.508-5.582 6.748a10.745 10.745 0 01-8.837 3.583c1.086 1.287 2.214 2.665 3.4 3.992a2.18 2.18 0 001.09.548c.305.016.61-.036.893-.15 3.121-.776 3.384-1.278 2.108-4.159l1.042-.819c1.56 1.465 2.587 3.34 3.857 4.552-2.421.488-4.759 1.915-7.305 2.57a9.491 9.491 0 01-7.636-1c0 1.632-.011 3.242.011 4.853 0 .27.064.661.244.787a9.7 9.7 0 005.431 2.117V36.45h1.768c.004 2.436.226 4.867.662 7.263 0 0-11.114-.239-14.142-11 0 0-1.483 8.965-14.152 11.067a29.71 29.71 0 00.5-7.333h1.851v3.943a8.88 8.88 0 005.475-2.05c.214-.148.209-.683.22-1.04.041-1.4.048-2.81.067-4.214 0-.158 0-.315-.005-.473l-.3.226a10.205 10.205 0 01-8.972.251 38.478 38.478 0 00-5.664-1.94l3.821-4.553 1.122.721c-.068.241-.12.38-.146.522-.15.84-.615 2.369-.615 2.369 1.395.62 2.845 1.11 4.331 1.463.107.031.351-.313.492-.51 0 0 2.06-3.225 3.526-3.853-1.239-.194-2.441-.337-3.625-.575a9.927 9.927 0 01-5.713-3.584C3.395 21.021 1.781 18.706 0 16.8c3.214-.288 6.4-1.8 10.087-2.066 0-2.563.1-5.292 0-7.883 2.486.956 5.282 1.026 7.685 2.09 1.53-3.305 3.819-5.618 5.193-8.75 1.321 2.961 3.763 5.244 5.186 8.753 2.382-.979 5.16-1.05 7.489-2.036.001 0 .365 4.928.316 7.745zm-10.925 6.655a35.993 35.993 0 001.483-5.966l2.347-1.54a13.637 13.637 0 01-.683 2.993 20.18 20.18 0 016.008-2.233c.038-1.6-.198-3.195-.7-4.716-5.062.478-8.68 2.61-10.463 7.391-2.99-5.256-6.563-7.682-10.655-7.126a18.218 18.218 0 00-.574 4.41c2.359.645 3.9 1.76 5.771 2.292a16.057 16.057 0 01-.347-2.915l1.933 1.444c.347 2.117.92 4.19 1.71 6.185-5.012-4.68-10.51-6.008-17.269-3.269 1.486 1.606 2.722 2.98 4.012 4.3a1.108 1.108 0 00.947.194c1.62-.523 3.187-1.428 4.885-1.516a9.894 9.894 0 01-1.71-1.823 4.775 4.775 0 014.393 2.73c-2.013.434-3.744.325-5.676 2.192 3.2 1.713 6.444.952 9.993 1 0 0-6.01 2.293-7.512 6.735a15.766 15.766 0 005.676-1.42 12.86 12.86 0 000 6.017c2.784-2.283 3.232-5.182 4.269-8.036 1.1 2.531 1.677 5.776 4.516 8.048.2-2.001.2-4.017 0-6.018a19.132 19.132 0 005.587 1.427s-1.535-4.484-7.4-6.789c3.505.078 6.71.725 9.908-.95-1.481-1.693-3.7-1.7-5.652-2.229.917-1.8 2.353-2.54 4.54-2.813a4.971 4.971 0 01-1.69 1.816c1.608.253 3.16.78 4.59 1.557a.959.959 0 00.826.046 12.25 12.25 0 003.916-4.623s-6.982-3.998-16.979 3.204zm-2.09-7.4c.629-.86 1.532-2.07 2.406-3.3.265-.374.707-.864.63-1.2a8.323 8.323 0 00-3-5.006 8.564 8.564 0 00-3.05 4.981.92.92 0 00.085.7c1.045 1.406 2.125 2.782 2.928 3.823l.001.001z"/><path d="M21.15 40.102l1.957 1.864 1.675-1.864 1.062 1.062c-1.415 1.061-2.76 4.606-2.76 4.606s-1.014-3.309-2.973-4.724l1.038-.944z"/></symbol><symbol viewBox="0 0 19 18" id="bedroom-o" xmlns="http://www.w3.org/2000/svg"><path d="M18.214 13.119H1l1.843-5.45H16.37l1.844 5.45z"/><path d="M1 13.117v4.148h2.49v-2.074h12.528v2.074h2.2v-4.148H1zm1.89-5.448V2.803A1.809 1.809 0 014.7 1h9.82a1.8 1.8 0 011.8 1.8v4.869"/><path d="M6.218 5.148h.808a2.142 2.142 0 012.14 2.148v.38h-5.09v-.38a2.142 2.142 0 012.142-2.148zm5.969 0h.806a2.142 2.142 0 012.144 2.148v.38h-5.09v-.38a2.141 2.141 0 012.14-2.148z"/></symbol><symbol viewBox="0 0 76 76" id="bus" xmlns="http://www.w3.org/2000/svg"><path d="M.002 56.603a2.61 2.61 0 01.216-.008c1.51-.002 3.02-.004 4.53-.004h5.16l-.265-.809-.328-1.007a95.46 95.46 0 00-.893-2.669c-.133-.37-.429-.839-.866-1.038a85.238 85.238 0 00-2.445-1.054c-.527-.221-1.055-.442-1.579-.672-1.701-.741-2.783-1.96-3.304-3.726a13.96 13.96 0 00-.18-.561L0 44.907V20.115c.417-1.386.884-2.49 1.776-3.356C2.995 15.575 4.517 15 6.43 15c5.713.004 11.42.006 17.126.006h40.15c3.519 0 5.482 1.436 6.56 4.796.39 1.22.787 2.436 1.184 3.655 1.134 3.487 2.306 7.092 3.343 10.67.98 3.376 1.35 7.197 1.16 12.021-.127 3.264-2.848 5.985-6.06 6.07-1.18.03-2.439.044-3.963.044a428 428 0 01-3.247-.014l-1.532-.01c-.56 0-1.237.127-1.515 1.126-.14.51-.368 1.024-.61 1.566-.115.26-.234.526-.349.809l-.352.852h17.598v3.399H.447c-.15 0-.3.004-.447.01v-3.397h.002zm17.536-12.042c-3.227.01-5.867 2.695-5.885 5.981a5.964 5.964 0 001.71 4.23 5.823 5.823 0 004.193 1.778h.026c3.226-.014 5.866-2.689 5.884-5.963a5.984 5.984 0 00-1.727-4.242c-1.126-1.151-2.61-1.784-4.18-1.784h-.022zm33.254 0c-3.237.035-5.859 2.736-5.847 6.022.012 3.289 2.66 5.965 5.903 5.967h.063c3.226-.035 5.842-2.728 5.828-6.004-.014-3.3-2.654-5.985-5.887-5.985h-.062.002zm-17.914 7.685c-1.51 0-3.3 0-5.114.016-.364.002-1.027.19-1.252.684-.3.657-.546 1.317-.808 2.013-.09.241-.183.487-.278.733l-.322.837h18.252l-1.772-4.281h-8.706v-.002zM50.82 41.18c4.106 0 7.58 2.606 8.851 6.638.117.372.33 1.05 1.239 1.05 1.202-.01 2.403-.01 3.524-.01h1.573c1.172 0 2.429 0 3.664-.012 1.536-.015 2.79-1.157 2.92-2.658.08-.94.062-1.857.044-2.83a64.817 64.817 0 01-.016-1.26v-.613h-1.575c-.612 0-1.224 0-1.837.002l-1.834.002a244.1 244.1 0 01-2.421-.01c-3.83-.035-7.107-2.703-7.967-6.49-.103-.452-.16-.929-.22-1.435-.03-.25-.06-.503-.096-.763l-.075-.527H39.957c-2.232 0-4.463 0-6.693.002l-6.692.002c-3.826 0-6.95-.004-9.832-.012-3.305-.01-5.643-1.503-6.948-4.437-.467-1.048-.61-2.355-.689-3.495-.083-1.192-.064-2.384-.046-3.647.008-.547.016-1.1.016-1.66v-.615h-.604c-.262 0-.516 0-.766-.004-.241 0-.477-.004-.709-.004-.292 0-.58.002-.868.012-1.764.053-2.783 1.122-2.795 2.934-.006 1-.006 1.997-.004 2.996v5.471c0 4.613 0 9.225-.006 13.838 0 .522-.002 1.748 1.045 2.293.862.449 1.756.834 2.622 1.204.357.154.713.307 1.068.465l.54.242.25-.545c1.85-4.038 4.736-6.086 8.577-6.086.094 0 .189 0 .284.005 4.398.11 7.39 2.526 8.893 7.183l.137.421h14.986l.203-.684c.043-.145.085-.286.13-.425 1.178-3.778 4.712-6.467 8.59-6.536h.172l.002-.002zm9.35-22.2c-.005.038-.013.073-.02.108a1.79 1.79 0 00-.048.379c0 1.253-.004 2.504-.006 3.757-.006 3.262-.014 6.636.02 9.956.029 2.776 2.163 4.89 4.965 4.918.672.006 1.345.008 2.018.008.523 0 1.049 0 1.573-.002l1.57-.002h1.998l-.143-.733c-.036-.186-.064-.358-.092-.522-.059-.35-.113-.68-.216-1.01a3590.167 3590.167 0 00-4.918-15.651c-.322-1.014-1.071-1.649-2.008-1.698-.5-.027-1.039-.039-1.696-.039-.398 0-.799.004-1.2.008-.398.005-.8.009-1.202.009h-.512l-.084.512.002.002zm-47.768 1.74v3.618c.008 2.838 1.692 4.536 4.5 4.544.895.002 1.791.004 2.688.004 1.113 0 2.225 0 3.339-.002h.68c.186 0 .359-.015.528-.025l.21-.014.572-.03V18.44h-12.52v2.283l.003-.002zm31.832 8.113H56.7V18.452H44.234v10.382zm-15.888-.009h12.46V18.462h-12.46v10.363z"/></symbol><symbol viewBox="0 0 24 24" id="calendar" xmlns="http://www.w3.org/2000/svg"><path d="M0 20.4C0 22.44 1.56 24 3.6 24h16.8c2.04 0 3.6-1.56 3.6-3.6v-9.6H0v9.6zm20.4-18H18V1.2c0-.72-.48-1.2-1.2-1.2s-1.2.48-1.2 1.2v1.2H8.4V1.2C8.4.48 7.92 0 7.2 0S6 .48 6 1.2v1.2H3.6C1.56 2.4 0 3.96 0 6v2.4h24V6c0-2.04-1.56-3.6-3.6-3.6z"/></symbol><symbol viewBox="0 0 42 23" id="car" xmlns="http://www.w3.org/2000/svg"><path d="M42 0l-2.864 2.875L42 5.75l-2.864 2.875L42 11.5l-2.864 2.875L42 17.25H15.273a5.762 5.762 0 01-1.678 4.066A5.716 5.716 0 019.545 23a5.716 5.716 0 01-4.05-1.684 5.762 5.762 0 01-1.677-4.066H0V11.5c0-2.127 1.7-3.833 3.818-3.833h3.818L13.364 0H42zm-6.91 2.875H23.863v4.792h12.18l1.909-1.917-2.864-2.875zm-14.09 0h-6.682l-3.742 4.792H21V2.875zm-11.455 11.5c-.759 0-1.487.303-2.024.842a2.88 2.88 0 000 4.066 2.858 2.858 0 004.05 0 2.88 2.88 0 000-4.066 2.858 2.858 0 00-2.026-.842z"/></symbol><symbol viewBox="0 0 30 30" id="caret-circle-down" xmlns="http://www.w3.org/2000/svg"><path d="M15 21l-6.93-8.25h13.857L14.999 21z"/><path fill-rule="evenodd" clip-rule="evenodd" d="M15 29c7.732 0 14-6.268 14-14S22.732 1 15 1 1 7.268 1 15s6.268 14 14 14zm0 1c8.284 0 15-6.716 15-15 0-8.284-6.716-15-15-15C6.716 0 0 6.716 0 15c0 8.284 6.716 15 15 15z"/></symbol><symbol viewBox="0 0 24 24" stroke-width="2" stroke-linecap="round" stroke-linejoin="round" class="ajfeather ajfeather-check-circle" id="check-circle-o" xmlns="http://www.w3.org/2000/svg"><path d="M22 11.08V12a10 10 0 11-5.93-9.14"/><path d="M22 4L12 14.01l-3-3"/></symbol><symbol viewBox="0 0 17 19" id="chevron-double-down" xmlns="http://www.w3.org/2000/svg"><path d="M8.5 19L0 10.492l1.983-1.985L8.5 14.994l6.517-6.487L17 10.493 8.5 19zm0-8.508L0 1.986 1.983 0 8.5 6.487 15.017 0 17 1.985l-8.5 8.507z"/></symbol><symbol viewBox="0 0 14 12" id="chevron-double-left" xmlns="http://www.w3.org/2000/svg"><g clip-path="url(#alclip0)"><path d="M.178 6.358l5.321 5.32a.606.606 0 10.859-.858L1.466 5.928l4.892-4.892a.607.607 0 10-.859-.858L.18 5.498a.606.606 0 000 .86zm7.465 0l5.321 5.32a.607.607 0 00.858-.858l-4.89-4.892 4.89-4.891a.606.606 0 10-.858-.859L7.644 5.5a.606.606 0 000 .859z"/></g><defs><clipPath id="alclip0"><path d="M0 0h14v11.855H0z"/></clipPath></defs></symbol><symbol viewBox="0 0 14 12" id="chevron-double-right" xmlns="http://www.w3.org/2000/svg"><g clip-path="url(#amclip0)"><path d="M13.822 5.498L8.5.178a.607.607 0 10-.859.858l4.892 4.892-4.892 4.892a.607.607 0 10.859.858l5.32-5.32a.607.607 0 000-.86zm-7.465 0L1.036.178a.607.607 0 00-.858.858l4.89 4.892-4.89 4.891a.607.607 0 10.858.859l5.32-5.321a.606.606 0 000-.859z"/></g><defs><clipPath id="amclip0"><path d="M0 0h14v11.855H0z"/></clipPath></defs></symbol><symbol viewBox="0 0 12 22" id="chevron-right" xmlns="http://www.w3.org/2000/svg"><path fill-rule="evenodd" clip-rule="evenodd" d="M.552 21.707a1 1 0 010-1.414l9.034-9.034L.552 2.224A1 1 0 011.966.81l9.741 9.742a1 1 0 010 1.414l-9.74 9.741a1 1 0 01-1.415 0z"/></symbol><symbol viewBox="0 0 19 16" id="conditioning-o" xmlns="http://www.w3.org/2000/svg"><path d="M16.013 1H3.36A2.36 2.36 0 001 3.36v3.184a2.36 2.36 0 002.36 2.36h12.653a2.36 2.36 0 002.36-2.36V3.36A2.36 2.36 0 0016.013 1zM2.586 4.952h8.346m2.033 0h3.692M2.586 6.726h3.692m2.032 0h8.347m-2.759 4.35v3.996m-1.728-2.997l3.46 1.998m0-1.998l-3.46 1.998m-7.66-2.729c.16.347.434.514.434 1.086 0 .8-.536.8-.536 1.607.022.373.17.729.421 1.007m3.619-3.7c.152.347.434.514.434 1.086 0 .8-.536.8-.536 1.607a1.6 1.6 0 00.384.984m-2.25-4.22c.16.347.435.514.435 1.093 0 .8-.528.8-.528 1.6.013.362.149.709.384.984"/></symbol><symbol viewBox="0 0 29.25 20.25" id="email" xmlns="http://www.w3.org/2000/svg"><defs><style>.apcls-1{fill:#5f4d45}</style></defs><g id="apIcon_ionic-ios-mail" transform="translate(-3.375 -7.875)"><path id="apPath_150" d="M32.386 10.357l-7.566 7.706a.136.136 0 000 .2l5.295 5.637a.912.912 0 010 1.294.917.917 0 01-1.294 0l-5.273-5.618a.144.144 0 00-.2 0l-1.287 1.308a5.661 5.661 0 01-4.036 1.7 5.775 5.775 0 01-4.12-1.751l-1.238-1.259a.144.144 0 00-.2 0l-5.281 5.619a.917.917 0 01-1.294 0 .912.912 0 010-1.294l5.295-5.639a.15.15 0 000-.2l-7.573-7.703a.139.139 0 00-.239.1v15.42a2.257 2.257 0 002.25 2.25h24.75a2.257 2.257 0 002.25-2.25V10.455a.141.141 0 00-.239-.098z" class="apcls-1"/><path id="apPath_151" d="M18 20.749a3.823 3.823 0 002.749-1.149L31.781 8.367a2.21 2.21 0 00-1.392-.492H5.618a2.2 2.2 0 00-1.392.492L15.258 19.6A3.823 3.823 0 0018 20.749z" class="apcls-1"/></g></symbol><symbol viewBox="0 0 24 24" id="facebook" xmlns="http://www.w3.org/2000/svg"><path d="M24 12c0-6.629-5.371-12-12-12S0 5.371 0 12c0 5.99 4.388 10.954 10.125 11.855v-8.386H7.077V12h3.048V9.356c0-3.007 1.79-4.668 4.532-4.668 1.314 0 2.687.234 2.687.234v2.952H15.83c-1.49 0-1.955.925-1.955 1.874V12h3.328l-.532 3.469h-2.796v8.386C19.612 22.954 24 17.989 24 12z"/></symbol><symbol id="facebook-circle" viewBox="0 0 34.758 34.758" xmlns="http://www.w3.org/2000/svg"><defs><style>.arcls-1{fill:#5b5b5b;fill-rule:evenodd}</style></defs><g id="arGroup_69"><path id="arPath_26" d="M45.7 21.161a17.377 17.377 0 105.091 12.288A17.314 17.314 0 0045.7 21.161zm-.952 23.624a16.042 16.042 0 114.682-11.336 16 16 0 01-4.686 11.336z" class="arcls-1" transform="translate(-16.029 -16.07)"/><path id="arPath_27" d="M203.65 135.079c0-.683.329-.964.656-.964h2.1V131h-2.847a3.657 3.657 0 00-3.817 3.906v1.382H198v3.477h1.738v9.127h3.911v-9.127h2.369l.116-1.358.212-2.118h-2.7z" class="arcls-1" transform="translate(-184.819 -122.675)"/></g></symbol><symbol viewBox="0 0 15 30" id="facebook-f" xmlns="http://www.w3.org/2000/svg"><path fill-rule="evenodd" clip-rule="evenodd" d="M9.832 7.303c0-1.1.53-1.554 1.057-1.554h3.384V.73H9.686a5.893 5.893 0 00-6.15 6.294v2.227H.728v5.602h2.8V29.56H9.83V14.853h3.817l.187-2.188.342-3.413h-4.35l.006-1.95z"/></symbol><symbol viewBox="0 0 42 42" id="facebook-square" xmlns="http://www.w3.org/2000/svg"><path d="M37.5 0h-33A4.5 4.5 0 000 4.5v33A4.5 4.5 0 004.5 42h12.867V27.72h-5.906V21h5.906v-5.123c0-5.826 3.469-9.045 8.782-9.045 2.544 0 5.205.454 5.205.454v5.719h-2.932c-2.888 0-3.79 1.792-3.79 3.63V21h6.449l-1.031 6.72h-5.417V42H37.5a4.5 4.5 0 004.5-4.5v-33A4.5 4.5 0 0037.5 0z"/></symbol><symbol viewBox="0 0 23 17" id="group-o" xmlns="http://www.w3.org/2000/svg"><path d="M16.48 8.55a3.056 3.056 0 100-6.112 3.056 3.056 0 000 6.112zM14.467 10.138a5.094 5.094 0 017.113 4.683.922.922 0 01-.92.92h-4.694M14.301 14.7a1.043 1.043 0 01-1.043 1.043H2.043A1.043 1.043 0 011 14.7a5.575 5.575 0 011.877-4.091 6.36 6.36 0 014.271-1.7h1.006a6.376 6.376 0 014.63 2.056 5.486 5.486 0 011.517 3.735zM11.064 4.415a3.415 3.415 0 11-6.829 0 3.415 3.415 0 016.83 0z"/></symbol><symbol viewBox="0 0 30 24" id="home" xmlns="http://www.w3.org/2000/svg"><path d="M14.381 6.017l-9.466 7.796v8.415a.822.822 0 00.821.822l5.754-.015a.821.821 0 00.818-.821v-4.915a.822.822 0 01.821-.821h3.286a.822.822 0 01.822.821v4.911a.82.82 0 00.821.824l5.752.016a.822.822 0 00.821-.822v-8.42l-9.464-7.791a.626.626 0 00-.786 0zm14.954 5.3l-4.293-3.54V.668a.616.616 0 00-.616-.617h-2.875a.616.616 0 00-.616.616v3.728L16.338.612a2.464 2.464 0 00-3.132 0L.209 11.316a.616.616 0 00-.083.868l1.31 1.591a.616.616 0 00.868.084l12.077-9.947a.626.626 0 01.786 0l12.078 9.947a.615.615 0 00.868-.082l1.309-1.592a.616.616 0 00-.087-.869z"/></symbol><symbol viewBox="0 0 22 22" id="instagram" xmlns="http://www.w3.org/2000/svg"><path d="M11.002 5.358a5.63 5.63 0 00-5.639 5.64 5.63 5.63 0 005.64 5.639 5.63 5.63 0 005.639-5.64 5.63 5.63 0 00-5.64-5.639zm0 9.306a3.673 3.673 0 01-3.666-3.666 3.67 3.67 0 013.666-3.667 3.67 3.67 0 013.667 3.667 3.673 3.673 0 01-3.667 3.666zm7.186-9.536c0 .73-.59 1.315-1.316 1.315a1.315 1.315 0 111.315-1.315zm3.735 1.335c-.084-1.762-.486-3.323-1.777-4.609C18.86.568 17.299.166 15.537.077c-1.816-.103-7.258-.103-9.074 0C4.706.161 3.145.563 1.854 1.85.564 3.135.166 4.696.077 6.458c-.103 1.816-.103 7.259 0 9.075.084 1.761.486 3.322 1.777 4.608 1.29 1.286 2.847 1.688 4.609 1.777 1.816.103 7.259.103 9.074 0 1.762-.084 3.323-.486 4.609-1.777 1.286-1.286 1.688-2.846 1.777-4.608.103-1.816.103-7.254 0-9.07zM19.577 17.48a3.712 3.712 0 01-2.091 2.09c-1.448.575-4.884.442-6.484.442-1.6 0-5.04.128-6.483-.441a3.712 3.712 0 01-2.09-2.091c-.575-1.448-.442-4.884-.442-6.484 0-1.6-.128-5.04.441-6.483a3.712 3.712 0 012.091-2.09c1.448-.575 4.883-.442 6.483-.442 1.6 0 5.04-.128 6.484.441a3.712 3.712 0 012.09 2.091c.575 1.448.442 4.884.442 6.484 0 1.6.133 5.04-.441 6.483z"/></symbol><symbol id="instagram-circle" viewBox="0 0 34.758 34.758" xmlns="http://www.w3.org/2000/svg"><defs><style>.axcls-1{fill:#5b5b5b}</style></defs><g id="axGroup_70"><path id="axPath_28" d="M45.7 21.161a17.377 17.377 0 105.091 12.288A17.3 17.3 0 0045.7 21.161zm-.952 23.624a16.042 16.042 0 114.686-11.336 16 16 0 01-4.691 11.336z" class="axcls-1" transform="translate(-16.028 -16.07)"/><path id="axPath_29" d="M184 178.416a5.62 5.62 0 105.62 5.62 5.626 5.626 0 00-5.62-5.62zm0 10.075a4.456 4.456 0 114.455-4.456 4.45 4.45 0 01-4.455 4.456z" class="axcls-1" transform="translate(-166.618 -166.657)"/><path id="axPath_30" d="M148.361 136h-9.19a4.161 4.161 0 00-4.171 4.1v9.19a3.98 3.98 0 004.172 3.875h9.19a3.97 3.97 0 004.167-3.875v-9.19a4.151 4.151 0 00-4.168-4.1zm3.153 13.292a2.962 2.962 0 01-3.153 2.86h-9.19a2.9 2.9 0 01-3.085-2.86V140.1a3.088 3.088 0 013.085-3.088h9.19a3.147 3.147 0 013.153 3.088z" class="axcls-1" transform="translate(-126.382 -127.313)"/><path id="axPath_31" d="M320.5 167.921a.9.9 0 10.9.9.9.9 0 00-.9-.9z" class="axcls-1" transform="translate(-297.61 -156.922)"/></g></symbol><symbol viewBox="0 0 18 18" id="ipad" xmlns="http://www.w3.org/2000/svg"><g clip-path="url(#ayclip0_1_2)"><path d="M.02 1.664c.03-.104.058-.21.092-.314C.367.563 1.076.055 1.934.054c2.96-.002 5.918-.002 8.877 0a1.78 1.78 0 01.28.017c.989.159 1.629.907 1.631 1.922.004 1.57.001 3.14.001 4.709V9.24c.001.081-.007.163-.023.242a.35.35 0 01-.358.275.348.348 0 01-.344-.269 1.291 1.291 0 01-.025-.277c-.001-2.393-.001-4.785 0-7.178.001-.5-.177-.894-.637-1.11a1.388 1.388 0 00-.574-.12C7.832.796 4.902.795 1.972.8 1.237.8.766 1.271.766 2.006c-.003 4.027-.003 8.053 0 12.079 0 .045.006.09.011.158H8.43c.087-.001.174.006.26.022a.36.36 0 01.002.707 1.333 1.333 0 01-.26.022H.795c0 .468-.045.921.012 1.36.07.543.572.88 1.2.88H7.68c.064 0 .128-.002.192.004.19.015.313.118.348.287.038.178-.035.328-.206.417-.025.013-.052.024-.079.036H1.631c-.037-.012-.073-.027-.111-.036-.698-.166-1.166-.59-1.408-1.263-.037-.099-.062-.206-.092-.31V1.664z"/><path d="M9.265 17.98c-.245-.112-.303-.312-.272-.562a1.878 1.878 0 011.88-1.678c.174-.002.348 0 .566 0-.065-.069-.106-.113-.148-.155l-2.647-2.649c-.403-.404-.506-.922-.282-1.375.36-.73 1.297-.88 1.903-.298.21.201.41.414.63.638.277-.482.676-.723 1.22-.68.382-.823.768-1.047 1.542-.888.047-.088.087-.185.145-.269.411-.602 1.2-.732 1.733-.234.57.532 1.148 1.074 1.62 1.69 1.518 1.982.778 4.943-1.467 6.031a4.184 4.184 0 01-1.316.395 1.54 1.54 0 00-.134.033l-4.973.001zm.534-.756c.074.006.113.011.152.011 1.295 0 2.59.003 3.886 0 .432 0 .86-.08 1.264-.235 2.111-.804 2.796-3.598 1.28-5.267-.407-.449-.849-.867-1.276-1.297a.588.588 0 00-.14-.103c-.252-.133-.57.023-.587.307-.007.12.053.257.115.367.12.214.117.403-.042.534-.158.13-.357.113-.533-.053-.106-.1-.204-.21-.31-.308-.205-.19-.456-.196-.624-.022-.163.17-.152.414.032.611.095.102.2.197.296.298.188.196.204.413.043.573-.157.157-.38.14-.572-.047-.159-.155-.313-.315-.471-.47-.108-.105-.234-.174-.392-.15a.39.39 0 00-.336.269c-.06.176-.005.332.125.462l.817.817c.22.222.25.442.083.611-.167.17-.39.137-.61-.082l-.099-.099-2.093-2.09a.954.954 0 00-.188-.154c-.273-.156-.636.04-.611.346.01.134.103.286.202.386a536.006 536.006 0 003.35 3.356c.13.13.202.276.129.456-.073.18-.225.239-.41.233a7.092 7.092 0 00-.333 0c-.42.006-.842-.012-1.259.026-.422.039-.703.3-.888.714zm-3.443-.741c-.234 0-.467.005-.7-.001-.244-.006-.403-.159-.403-.371.001-.212.163-.367.406-.37.472-.005.945-.005 1.417 0 .246.002.405.151.409.365.003.224-.153.367-.412.377h-.717zM1.52 1.925a.363.363 0 01.359-.37.373.373 0 01.38.37.384.384 0 01-.371.367.374.374 0 01-.368-.367z"/></g><defs><clipPath id="ayclip0_1_2"><path d="M0 0h18v18H0z"/></clipPath></defs></symbol><symbol viewBox="0 0 42 43" id="linkedin" xmlns="http://www.w3.org/2000/svg"><path d="M9.401 42.01H.694V13.969H9.4V42.01zM5.043 10.144C2.258 10.144 0 7.837 0 5.053a5.043 5.043 0 0110.086 0c0 2.784-2.26 5.09-5.043 5.09zM41.992 42.01h-8.69V28.36c0-3.253-.065-7.425-4.527-7.425-4.527 0-5.22 3.534-5.22 7.19V42.01h-8.699V13.969h8.351v3.825h.122c1.163-2.203 4.002-4.528 8.24-4.528C40.38 13.266 42 19.069 42 26.606V42.01h-.01z"/></symbol><symbol id="linkedin-circle" viewBox="0 0 34.623 34.623" xmlns="http://www.w3.org/2000/svg"><defs><style>.bacls-1{fill:#5b5b5b}</style></defs><path id="baPath_32" d="M234.437 224.769v-6.437c0-3.323-1.8-4.864-4.141-4.864a3.655 3.655 0 00-3.247 1.8v-1.509H223.5v11.01h3.549v-6.276a2.38 2.38 0 01.141-.874 1.993 1.993 0 011.859-1.315c1.289 0 1.839.991 1.839 2.442v6.023z" class="bacls-1" transform="translate(-208.434 -199.2)"/><path id="baPath_33" d="M147.049 141.034a1.9 1.9 0 10-.045 3.8h.026a1.9 1.9 0 10.02-3.8z" class="bacls-1" transform="translate(-135.736 -132.014)"/><path id="baRectangle_9" d="M0 0h3v11H0z" class="bacls-1" transform="translate(10.088 14.766)"/><path id="baPath_34" d="M32.812 16.5a17.312 17.312 0 1017.311 17.312A17.312 17.312 0 0032.812 16.5zm11.472 28.784a16.225 16.225 0 114.752-11.473 16.119 16.119 0 01-4.752 11.473z" class="bacls-1" transform="translate(-15.5 -16.5)"/></symbol><symbol viewBox="0 0 21 30" id="map-marker" xmlns="http://www.w3.org/2000/svg"><path d="M10.5 0A10.492 10.492 0 000 10.5C0 18.375 10.5 30 10.5 30S21 18.375 21 10.5A10.492 10.492 0 0010.5 0zm0 14.25a3.75 3.75 0 113.75-3.75 3.751 3.751 0 01-3.75 3.75z"/></symbol><symbol viewBox="0 0 19 19" id="minibar-o" xmlns="http://www.w3.org/2000/svg"><path d="M11.604 5.835v5.791a3.216 3.216 0 00.64 1.99 2.758 2.758 0 002.28 1.057 2.988 2.988 0 002.374-1.064c.485-.6.741-1.35.724-2.121V5.835h-6.018zm3.026 9.085v3.134m2.403 0h-4.806m-.622-9.62h6.044M2.954 2.896V6.48L1.413 8.021a1.4 1.4 0 00-.413 1v8.382a.97.97 0 00.97.97h5.226a.97.97 0 00.97-.97V8.89a1.448 1.448 0 00-.521-1.093L5.89 6.349V2.896S7.254 1 4.583 1C1.59 1 2.954 2.896 2.954 2.896z"/><path d="M8.166 14.92H4.597a1.536 1.536 0 01-1.531-1.571v-1.346a1.535 1.535 0 011.531-1.535h3.569v4.452zm7.963-4.423s.2 2.338-1.5 2.447"/></symbol><symbol viewBox="0 0 18.179 29.086" id="mobile" xmlns="http://www.w3.org/2000/svg"><path d="M15.452 0H2.727A2.728 2.728 0 000 2.727v23.632a2.728 2.728 0 002.727 2.727h12.725a2.728 2.728 0 002.727-2.727V2.727A2.728 2.728 0 0015.452 0zM9.089 27.268a1.818 1.818 0 111.818-1.818 1.816 1.816 0 01-1.818 1.818zm6.363-6.135a.684.684 0 01-.682.682H3.409a.684.684 0 01-.682-.682V3.409a.684.684 0 01.682-.682H14.77a.684.684 0 01.682.682z"/></symbol><symbol viewBox="0 0 24 24" id="phone" xmlns="http://www.w3.org/2000/svg"><path d="M19.95 21c.3 0 .55-.1.75-.3.2-.2.3-.45.3-.75V15.9a.914.914 0 00-.225-.613 1.017 1.017 0 00-.575-.337l-3.45-.7a1.618 1.618 0 00-.713.062 1.404 1.404 0 00-.587.338L13.1 17a18.293 18.293 0 01-3.475-2.725A16.607 16.607 0 017 10.9l2.4-2.45c.15-.15.246-.321.288-.513A1.82 1.82 0 009.7 7.3l-.65-3.5a.88.88 0 00-.325-.575A.96.96 0 008.1 3H4.05c-.3 0-.55.1-.75.3-.2.2-.3.45-.3.75 0 2.15.48 4.246 1.438 6.287a19.045 19.045 0 003.8 5.425 19.05 19.05 0 005.424 3.8C15.704 20.521 17.8 21 19.95 21z"/></symbol><symbol viewBox="0 0 19 15" id="photo-o" xmlns="http://www.w3.org/2000/svg"><path d="M17.924 13.433H1V1.213h16.924v12.22z"/><path d="M1 9.114l3.333-3.686 7.841 8"/><path d="M8.254 9.43l2.614-2.448 6.142 6.45m-1.374-8.338a1.193 1.193 0 11-2.386 0 1.193 1.193 0 012.386 0z"/></symbol><symbol id="pinterest-circle" viewBox="0 0 34.758 34.758" xmlns="http://www.w3.org/2000/svg"><defs><style>.bgcls-1{fill:#5b5b5b;fill-rule:evenodd}</style></defs><g id="bgGroup_71"><path id="bgPath_35" d="M45.7 21.157a17.377 17.377 0 105.091 12.288A17.3 17.3 0 0045.7 21.157zm-.952 23.615a16.03 16.03 0 114.686-11.326 15.97 15.97 0 01-4.691 11.325z" class="bgcls-1" transform="translate(-16.028 -16.066)"/><path id="bgPath_36" d="M165.567 133.643c-4.984 0-7.515 3.455-7.515 6.351a5.6 5.6 0 00.192 1.53 3.365 3.365 0 001.963 2.367.352.352 0 00.519-.25c.058-.183.163-.626.221-.818a.473.473 0 00-.144-.568 2.754 2.754 0 01-.577-1.059 3.493 3.493 0 01-.125-.943 4.914 4.914 0 015.187-4.879c2.819 0 4.378 1.665 4.378 3.9a9.144 9.144 0 01-.193 1.886c-.442 2.05-1.6 3.532-3.147 3.532a1.592 1.592 0 01-1.665-1.963c.154-.606.375-1.241.568-1.857a6.532 6.532 0 00.375-1.751 1.379 1.379 0 00-1.434-1.53c-1.126 0-2.031 1.136-2.031 2.636a4.154 4.154 0 00.067.751 3.713 3.713 0 00.27.866s-1.155 4.725-1.347 5.553a10.962 10.962 0 00-.029 3.868c.01.115.173.144.25.058a10.775 10.775 0 001.905-3.329c.115-.462.741-2.81.741-2.81a3 3 0 002.569 1.28c2.742 0 4.783-1.992 5.446-4.888a9.226 9.226 0 00.231-2.1c.004-3.033-2.642-5.833-6.675-5.833z" class="bgcls-1" transform="translate(-147.765 -125.127)"/></g></symbol><symbol viewBox="0 0 17 19" id="play" xmlns="http://www.w3.org/2000/svg"><g clip-path="url(#bhclip0_979_158)"><path d="M16.419 8.625a1 1 0 010 1.75L1.484 18.638A1 1 0 010 17.763V1.237A1 1 0 011.484.362L16.42 8.625z"/></g><defs><clipPath id="bhclip0_979_158"><path d="M0 0h17v19H0z"/></clipPath></defs></symbol><symbol viewBox="0 0 119 119" id="play-circle" xmlns="http://www.w3.org/2000/svg"><path d="M47.103 46.237v26.527c0 1.983.868 3.43 2.604 4.338 1.735.91 3.43.827 5.082-.248l20.577-13.14c1.57-.908 2.355-2.313 2.355-4.214 0-1.9-.785-3.305-2.355-4.214l-20.577-13.14c-1.653-1.074-3.347-1.157-5.082-.248-1.736.91-2.604 2.355-2.604 4.339zM59.5 109.084c-6.859 0-13.305-1.303-19.337-3.908-6.033-2.601-11.28-6.133-15.743-10.596-4.462-4.462-7.994-9.71-10.596-15.742-2.605-6.033-3.907-12.479-3.907-19.338 0-6.859 1.302-13.304 3.907-19.337 2.602-6.033 6.134-11.28 10.596-15.743 4.463-4.462 9.71-7.996 15.743-10.6 6.032-2.602 12.478-3.903 19.337-3.903 6.86 0 13.305 1.3 19.338 3.902 6.032 2.605 11.28 6.139 15.743 10.601 4.462 4.463 7.994 9.71 10.596 15.743 2.604 6.033 3.907 12.478 3.907 19.337 0 6.86-1.303 13.305-3.907 19.338-2.602 6.033-6.134 11.28-10.596 15.743-4.463 4.462-9.71 7.994-15.743 10.595-6.033 2.605-12.479 3.908-19.338 3.908zm0-9.917c10.991 0 20.351-3.863 28.08-11.588 7.725-7.728 11.587-17.088 11.587-28.079 0-10.99-3.862-20.35-11.588-28.079C79.85 23.696 70.49 19.834 59.5 19.834c-10.99 0-20.349 3.862-28.074 11.587-7.728 7.729-11.592 17.088-11.592 28.08 0 10.99 3.864 20.35 11.592 28.078C39.15 95.304 48.508 99.167 59.5 99.167z"/></symbol><symbol viewBox="0 0 30 30" id="play-circle-2" xmlns="http://www.w3.org/2000/svg"><g clip-path="url(#bjclip0_1005_159)"><path d="M15 28.125a13.125 13.125 0 110-26.25 13.125 13.125 0 010 26.25zM15 30a15 15 0 100-30 15 15 0 000 30z"/><path d="M11.758 9.478a.938.938 0 01.975.072l6.563 4.687a.938.938 0 010 1.526l-6.563 4.688a.937.937 0 01-1.483-.763v-9.375a.938.938 0 01.508-.835z"/></g><defs><clipPath id="bjclip0_1005_159"><path d="M0 0h30v30H0z"/></clipPath></defs></symbol><symbol viewBox="0 0 80 80" id="play-circle-3" xmlns="http://www.w3.org/2000/svg"><g clip-path="url(#bkclip0_599_2772)"><path d="M40 75a35 35 0 110-70 35 35 0 010 70zm0 5a40 40 0 100-80 40 40 0 000 80z"/><path d="M31.355 25.275a2.5 2.5 0 012.6.19l17.5 12.5a2.5 2.5 0 010 4.07l-17.5 12.5A2.5 2.5 0 0130 52.5v-25a2.5 2.5 0 011.355-2.225z"/></g><defs><clipPath id="bkclip0_599_2772"><path d="M0 0h80v80H0z"/></clipPath></defs></symbol><symbol viewBox="0 0 76 76" id="restaurant" xmlns="http://www.w3.org/2000/svg"><path d="M69.117 10.638c-.223.232-.477.441-.657.701a1.182 1.182 0 00-.198.638c-.012 3.349.002 3.404-.012 6.75-.013 3.168-2.085 5.659-5.188 6.173-2.089.347-3.889-.31-5.382-1.807-.144-.146-.281-.297-.424-.446-.012-.012-.035-.013-.053-.018-2.601 3.127-7.178 3.175-9.828-.003-2.722 3.25-7.273 3.052-9.81-.044-1.286 1.504-2.88 2.398-4.898 2.398-2.003 0-3.598-.85-4.918-2.404-1.292 1.52-2.89 2.404-4.906 2.404-2 0-3.599-.848-4.987-2.492-.098.168-.156.324-.261.439-1.793 1.945-4.41 2.575-6.803 1.646-2.375-.921-3.907-3.172-3.918-5.807-.013-3.369-.006-3.443 0-6.813 0-.324-.043-.55-.363-.753-.453-.287-.612-.772-.448-1.3.168-.54.548-.854 1.132-.88.184-.01.37-.008.555-.008 19.884 0 39.77.003 59.654-.012.77 0 1.372.158 1.716.896v.74l-.003.002zm-59.767.865c0 3.716-.06 4.075.03 7.726.036 1.464.947 2.513 2.335 3.05 2.455.948 4.96-.852 4.977-3.593.023-3.328.006-3.36.003-6.688 0-.158-.028-.315-.044-.494H9.349l.001-.001zm19.674 0c-.028.123-.055.181-.055.24-.001 3.49-.013 3.688.008 7.18a3.433 3.433 0 001.183 2.618c1.149 1.023 2.477 1.28 3.89.691 1.44-.599 2.244-1.743 2.262-3.304.04-3.49.013-3.689.01-7.18 0-.076-.031-.153-.05-.247h-7.25l.002.002zm9.781 0c0 3.702-.053 4.043.027 7.674.033 1.468.916 2.53 2.292 3.084 2.466.994 5.01-.815 5.028-3.584.022-3.326.006-3.36.003-6.688 0-.156-.03-.314-.047-.486h-7.303zm19.668.007c-.019.146-.047.263-.047.382-.002 3.41-.006 3.526.006 6.934 0 .364.068.738.174 1.09a3.658 3.658 0 004.05 2.573 3.663 3.663 0 003.124-3.586c.024-3.45.009-3.607.006-7.057 0-.114-.04-.229-.06-.334h-7.253v-.002zm-39.284 0c0 3.735-.056 4.114.029 7.783.032 1.422.94 2.427 2.26 2.965 2.418.985 4.987-.769 5.012-3.446.031-3.385.009-3.478.008-6.863 0-.137-.021-.275-.035-.439H19.19zm29.496-.012c-.029.116-.055.173-.055.23 0 3.55-.024 3.807.018 7.356.016 1.387.768 2.41 1.985 3.04 2.459 1.27 5.293-.508 5.317-3.347.026-3.344.007-3.396.006-6.74 0-.176-.027-.351-.042-.537h-7.228l-.001-.002zm-9.891 36.614c0 4.025-.004 7.949.013 11.871 0 .207.161.455.317.614a348.054 348.054 0 004.05 4.056c.462.455.745.947.483 1.59-.267.657-.835.76-1.474.757-3.081-.012-6.164-.012-9.245 0-.64.003-1.207-.101-1.473-.76-.261-.643.024-1.132.486-1.587a326.071 326.071 0 004.05-4.056c.156-.16.313-.407.314-.616.018-3.923.013-7.847.013-11.87H23.401c-1.112 0-1.546-.414-1.55-1.509a641.86 641.86 0 010-5.854c.004-1.11.425-1.52 1.535-1.52h28.35c1.11 0 1.532.41 1.536 1.521a641.86 641.86 0 010 5.854c-.006 1.096-.44 1.509-1.552 1.509H38.793h.001zm-14.463-2.513h26.441v-3.856H24.331V45.6zm11.324 18.88h3.588c-.572-.566-1.188-1.173-1.796-1.772l-1.793 1.772h.001z"/><path d="M64.184 60.238H48.08v.688c0 1.56.009 3.123-.004 4.683-.008.87-.485 1.382-1.235 1.375-.714-.006-1.216-.519-1.22-1.34-.011-3.41-.056-6.821.019-10.23.053-2.511 1.895-4.226 4.42-4.256 2.198-.025 4.396-.006 6.593-.006h.737V37.547c.002-2.933 1.788-4.718 4.718-4.72 1.027 0 2.054-.005 3.08 0 1.007.005 1.459.461 1.459 1.48v31.182c0 .963-.457 1.5-1.247 1.493-.78-.008-1.216-.548-1.218-1.523-.002-1.723 0-3.445 0-5.223l.004.002zm-16.087-2.543H64.14V35.292h-2.07c-1.51.003-2.215.707-2.215 2.225v14.351c0 1.366-.385 1.748-1.764 1.748-2.648 0-5.297-.006-7.945.003-1.16.005-1.949.642-2.037 1.707-.062.77-.012 1.551-.012 2.367l-.001.002zm-30.368-6.542h.756c2.157 0 4.314-.012 6.472.003 2.7.019 4.525 1.823 4.545 4.524.022 3.265.006 6.532.004 9.799 0 .123 0 .247-.018.368-.095.721-.604 1.167-1.288 1.136-.65-.03-1.133-.5-1.145-1.208-.023-1.582-.011-3.163-.013-4.746v-.776H10.935v.664c0 1.603.012 3.205-.007 4.807-.01.761-.525 1.26-1.23 1.259-.702 0-1.191-.505-1.227-1.265-.006-.144-.002-.287-.002-.43V34.535c0-1.347.367-1.71 1.725-1.71 1.006 0 2.012-.005 3.02 0 2.653.014 4.504 1.844 4.512 4.49.012 4.335.003 8.669.003 13.004v.833zm-6.773 6.545H27.04v-1.757c-.003-1.639-.681-2.321-2.315-2.321-2.627-.002-5.255.003-7.884-.003-1.128-.003-1.573-.449-1.577-1.562-.005-1.088 0-2.176 0-3.264 0-3.818.003-7.638-.002-11.456 0-1.066-.588-1.897-1.54-1.993-.906-.091-1.83-.02-2.764-.02V57.7l-.003-.002z"/></symbol><symbol viewBox="0 0 18 18" id="safe" xmlns="http://www.w3.org/2000/svg"><g clip-path="url(#bmclip0_1_7)"><path d="M7.96 6.093c-.142-.054-.164-.124-.16-.253.007-.304-.09-.443-.295-.445-.205-.002-.31.134-.298.437.005.142-.035.209-.172.264a1.178 1.178 0 00-.695 1.408 1.21 1.21 0 001.31.877 1.198 1.198 0 001.046-1.194 1.16 1.16 0 00-.736-1.094zm-.448 1.695a.61.61 0 01-.614-.593.6.6 0 01.598-.602.588.588 0 01.6.596.597.597 0 01-.584.599zm9.29 3.659c0-.535.002-.974 0-1.412-.002-.406-.238-.698-.636-.76a15.334 15.334 0 01-2.135-.487.78.78 0 00-.466.002c-.693.213-1.4.374-2.117.482-.4.06-.647.35-.649.75-.003.853-.032 1.709.007 2.56.084 1.856.983 3.195 2.66 4.01a.735.735 0 00.66.006c1.44-.678 2.315-1.796 2.61-3.359.117-.624.047-1.259.066-1.792zm-.606 1.11c-.065 1.575-.813 2.73-2.222 3.454a.338.338 0 01-.344.003c-1.414-.729-2.157-1.885-2.23-3.47-.018-.39-.003-.783-.003-1.174v-1.228c0-.248 0-.248.243-.289a15.37 15.37 0 002.014-.466.44.44 0 01.273-.007c.68.212 1.377.37 2.082.475.148.022.196.088.196.23-.005.824.025 1.65-.01 2.473z"/><path d="M17.188 8.163c-.82-.099-1.63-.256-2.428-.47-.293-.08-.294-.078-.294-.378V1.742c0-.223-.011-.447-.08-.659-.198-.62-.595-1.018-1.273-1.081H1.266C1.003.09.742.174.524.362.242.604.1.92 0 1.265v11.86c.133.7.603 1.182 1.242 1.271.216.03.237.035.218.25-.042.482.368.962.954.98.393.011.785.012 1.177 0a.964.964 0 00.956-.953c.008-.237.008-.237.25-.237h4.744c.414 0 .331-.026.48.32a5.777 5.777 0 001.222 1.805c.611.615 1.349 1.045 2.152 1.36.265.105.56.103.825-.005.917-.37 1.742-.875 2.397-1.636a6.014 6.014 0 001.186-2.129c.113-.358.158-.726.197-1.097V8.95c-.088-.458-.371-.733-.812-.786zM3.43 14.975c-.316 0-.632.002-.948 0-.311-.002-.492-.272-.378-.557.026-.065.077-.04.118-.04.263-.003.526-.001.79-.001.256 0 .514.003.771-.002.088-.002.118.02.12.114.011.389-.08.486-.473.486zm6.103-1.196c-1.43-.005-2.859-.003-4.288-.003h-3.62C.953 13.776.6 13.42.6 12.746V1.627C.6.953.952.6 1.626.6h11.16c.651 0 1.014.358 1.014 1.004 0 1.906-.001 3.812.004 5.718 0 .128-.04.158-.158.188-.3.076-.593.176-.886.273-.128.041-.167.018-.167-.127.006-1.608-.01-3.216.01-4.824.01-.685-.465-1.045-1.04-1.043-2.911.014-5.822.006-8.734.007-.672 0-1.031.355-1.03 1.025 0 .108-.003.175-.143.2-.272.05-.453.283-.456.568a94.935 94.935 0 000 1.807.572.572 0 00.472.573c.1.022.129.057.128.16a150.24 150.24 0 000 2.123c0 .102-.028.13-.129.151a.579.579 0 00-.471.577 94.94 94.94 0 000 1.807.577.577 0 00.489.578c.095.017.112.05.11.132a1.49 1.49 0 00.025.384.89.89 0 00.79.688c.081.006.163.006.245.006 2.185 0 4.37 0 6.556-.003.156 0 .195.04.196.19.004.275.026.552.1.817.053.192-.018.201-.178.2zm-.696-9.93c-1.547-.596-3.284-.102-4.256 1.236-.95 1.31-.887 3.11.12 4.366a3.664 3.664 0 004.898.679l.001 1.757c0 .07-.022.096-.09.089a.975.975 0 00-.106 0H2.848c-.375 0-.485-.126-.453-.506.006-.062.02-.085.087-.1.36-.084.513-.278.514-.644.003-.562.003-1.123 0-1.684-.001-.366-.155-.566-.512-.647-.078-.018-.088-.048-.088-.114V6.105c0-.08.023-.108.1-.127.35-.09.499-.28.5-.638.002-.567.002-1.135 0-1.702-.002-.346-.159-.548-.492-.627-.085-.02-.108-.052-.11-.138-.006-.384.083-.478.468-.478h8.684c.374 0 .451.076.451.452 0 1.637-.003 3.275.005 4.912 0 .166-.05.22-.204.24-.27.036-.539.088-.814.135A3.632 3.632 0 008.837 3.85zm-7.039 6.467c-.005-.14 0-.28 0-.42 0-.262.005-.524-.002-.787-.002-.097.023-.137.125-.127.155.016.356-.063.453.034.074.073.023.275.024.42 0 .402-.003.804.002 1.206.002.103-.017.149-.131.138-.15-.014-.348.045-.44-.03-.098-.08-.025-.284-.03-.434zm-.003-6.591c-.004-.113.035-.142.14-.135.104.008.21.008.315 0 .108-.008.152.019.15.14a50.67 50.67 0 000 1.52c.002.12-.038.144-.149.144-.454 0-.454.004-.454-.448v-.452c0-.257.006-.514-.002-.77zM9.628 8.88c-.194-.118-.347-.109-.453.019-.112.135-.09.29.066.448.16.165.161.166-.034.3a2.963 2.963 0 01-1.292.505c-.103.014-.12-.016-.114-.103a.956.956 0 00-.005-.21.302.302 0 00-.31-.256c-.152.008-.261.123-.284.282-.014.097.063.238-.043.283-.081.035-.204-.019-.306-.04a3.024 3.024 0 01-1.112-.495c-.105-.074-.15-.133-.022-.225a.486.486 0 00.107-.115.298.298 0 00-.04-.397.299.299 0 00-.386-.008l-.04.034c-.197.178-.196.177-.344-.042a3.06 3.06 0 01-.48-1.209c-.022-.125 0-.191.144-.168a.568.568 0 00.14-.001c.163-.015.256-.108.276-.266.02-.152-.082-.283-.238-.32a.448.448 0 00-.07-.01c-.28-.022-.28-.022-.22-.312.089-.436.274-.827.536-1.186.062-.084.103-.088.165-.007a.74.74 0 00.125.123c.133.107.3.097.411-.02a.307.307 0 00.008-.4c-.059-.077-.204-.14-.174-.218.035-.087.163-.14.256-.2a3.036 3.036 0 011.189-.444c.089-.014.134-.001.121.101a.93.93 0 000 .175c.01.17.128.288.289.293a.3.3 0 00.309-.313c.018-.278.019-.283.292-.225.442.091.859.28 1.219.551.072.054.078.085.01.143a1.16 1.16 0 00-.156.165.285.285 0 00.026.383.29.29 0 00.383.032c.088-.066.164-.148.248-.225.352.43.558.918.647 1.458.017.102-.01.136-.113.128a.559.559 0 00-.26.022c-.144.059-.208.167-.19.318.019.145.107.228.251.252l.035.003c.306.025.307.025.239.331-.014.062-.038.123-.05.186-.03.15-.097.247-.259.306-.256.091-.405.305-.497.574zm7.742 4.104c-.223 1.909-1.207 3.296-2.938 4.126-.78.374-.487.378-1.275-.007-1.9-.929-2.889-2.478-2.953-4.586-.034-1.11-.006-2.222-.006-3.333 0-.252.086-.344.335-.38.995-.145 1.992-.288 2.945-.625a.88.88 0 01.639-.002c.806.292 1.65.428 2.493.56.15.024.3.045.452.067.26.036.339.127.339.393v1.895c-.02.547.047 1.223-.031 1.892z"/><path d="M14.795 11.398c-.15-.05-.26.01-.353.122-.393.471-.788.94-1.178 1.412-.058.07-.089.094-.172.023a.28.28 0 00-.408.022c-.11.12-.104.293.02.425.08.085.163.166.247.247.178.172.353.169.51-.018.48-.572.959-1.147 1.438-1.72a.398.398 0 00.102-.242c-.017-.125-.072-.226-.206-.27z"/></g><defs><clipPath id="bmclip0_1_7"><path d="M0 0h18v18H0z"/></clipPath></defs></symbol><symbol viewBox="0 0 18 18" id="size-o" xmlns="http://www.w3.org/2000/svg"><path d="M14.322 2.728H4.014m10.308 12.883H4.014M2.73 14.329V4.012m12.874 10.317V4.012m1.287-2.566h-2.567v2.567h2.567V1.446zm-12.879 0H1.445v2.567h2.567V1.446zm12.879 12.878h-2.567v2.568h2.567v-2.568zm-12.879 0H1.445v2.568h2.567v-2.568z"/></symbol><symbol viewBox="0 0 15 19" id="speaker-o" xmlns="http://www.w3.org/2000/svg"><path d="M1 18.372h9.207V4.785H1v13.587z"/><path d="M5.605 16.535a2.476 2.476 0 100-4.952 2.476 2.476 0 000 4.952zM5.604 9.89a1.629 1.629 0 100-3.258 1.629 1.629 0 000 3.258zm4.748-7.196a2.092 2.092 0 012.092 2.092M10.352 1a3.786 3.786 0 013.786 3.79"/></symbol><symbol viewBox="0 0 15 14" id="star" xmlns="http://www.w3.org/2000/svg"><path d="M2.869 14l1.219-5.176L0 5.342l5.4-.46L7.5 0l2.1 4.882 5.4.46-4.088 3.482L12.133 14 7.5 11.255 2.869 14z"/></symbol><symbol viewBox="0 0 20 20" id="swimming-pool-o" xmlns="http://www.w3.org/2000/svg"><path d="M1 14.297c1.144 0 1.144 1.448 2.28 1.448s1.144-1.448 2.288-1.448 1.136 1.448 2.28 1.448 1.136-1.448 2.28-1.448 1.144 1.448 2.287 1.448 1.136-1.448 2.28-1.448 1.144 1.448 2.287 1.448 1.144-1.448 2.287-1.448M1 17.64c1.144 0 1.144 1.449 2.28 1.449s1.144-1.448 2.288-1.448 1.136 1.448 2.28 1.448 1.136-1.448 2.28-1.448 1.144 1.448 2.287 1.448 1.136-1.448 2.28-1.448 1.144 1.448 2.287 1.448 1.144-1.448 2.287-1.448M16.057 2.448a1.45 1.45 0 012.9 0m-2.9 10.532V2.448m-7.776 0a1.45 1.45 0 112.9 0m-2.9 10.532V2.448m.326 4.719h6.862m-6.862 3.606h6.862"/></symbol><symbol viewBox="0 0 19 17" id="tea-o" xmlns="http://www.w3.org/2000/svg"><path d="M7.132 14.355A6.762 6.762 0 012.34 7.884v-.883h13.529v.869a6.76 6.76 0 01-5.01 6.515m2.258 1.715H5.083C2.59 16.1 1 15.373 1 14.413h16.207c0 .934-1.517 1.687-4.09 1.687z"/><path d="M15.84 9.034s2.324-1.39 2.526.442c.202 1.832-2.982 2.591-3.952 2.664M6.828 1.6c.159.37.456.544.456 1.159 0 .854-.565.854-.565 1.708.005.398.148.782.405 1.086M11.027 1.6c.166.37.463.544.463 1.159 0 .854-.572.854-.572 1.708.011.4.162.785.427 1.086M8.927 1c.166.369.463.543.463 1.158 0 .854-.572.854-.572 1.708a1.7 1.7 0 00.413 1.05"/></symbol><symbol viewBox="0 0 19 13" id="tv-o" xmlns="http://www.w3.org/2000/svg"><path d="M18.373 1H1v9.352h17.373V1zM5.06 7.37l4.047-4.046M3.432 6.805l2.91-2.91m-.731 7.745l2.193-1.288m5.957 1.288l-2.193-1.288"/></symbol><symbol viewBox="0 0 25 21" id="twitter" xmlns="http://www.w3.org/2000/svg"><path d="M22.43 5.06c.016.222.016.444.016.667 0 6.773-5.155 14.578-14.578 14.578-2.903 0-5.6-.841-7.868-2.3.412.047.809.063 1.237.063 2.396 0 4.6-.809 6.361-2.19a5.133 5.133 0 01-4.79-3.553c.317.048.634.08.967.08.46 0 .92-.064 1.349-.175a5.125 5.125 0 01-4.109-5.028v-.064a5.16 5.16 0 002.316.65 5.12 5.12 0 01-2.284-4.266c0-.952.254-1.825.698-2.586A14.564 14.564 0 0012.31 6.298a5.784 5.784 0 01-.127-1.174A5.121 5.121 0 0117.306 0c1.476 0 2.808.619 3.744 1.618A10.088 10.088 0 0024.302.381a5.11 5.11 0 01-2.253 2.823A10.271 10.271 0 0025 2.411a11.016 11.016 0 01-2.57 2.65z"/></symbol><symbol id="twitter-circle" viewBox="0 0 34.758 34.767" xmlns="http://www.w3.org/2000/svg"><defs><style>.bucls-1{fill:#5b5b5b;fill-rule:evenodd}</style></defs><g id="buGroup_72"><path id="buPath_37" d="M45.7 21.094a17.389 17.389 0 105.09 12.3 17.356 17.356 0 00-5.09-12.3zm-.962 23.625a16.019 16.019 0 114.7-11.326 15.971 15.971 0 01-4.704 11.326z" class="bucls-1" transform="translate(-16.029 -16.004)"/><path id="buPath_38" d="M150.75 158.281a7.418 7.418 0 01-2.319.876 3.656 3.656 0 00-6.3 2.444 3.743 3.743 0 00.106.818 10.334 10.334 0 01-7.506-3.744 3.49 3.49 0 001.178 4.783 2.923 2.923 0 01-1.584-.443v.048a3.364 3.364 0 00.188 1.289 3.584 3.584 0 002.645 2.213 3.689 3.689 0 01-.978.134 3.315 3.315 0 01-.691-.077 3.666 3.666 0 003.394 2.5 7.367 7.367 0 01-4.515 1.53c-.3 0-.578-.019-.877-.048a10.508 10.508 0 005.581 1.607 10.108 10.108 0 0010.1-8.026 9.812 9.812 0 00.223-2.165v-.462a7.242 7.242 0 001.827-1.857 7.7 7.7 0 01-2.08.568 3.6 3.6 0 001.608-1.988z" class="bucls-1" transform="translate(-124.979 -147.734)"/></g></symbol><symbol viewBox="0 0 24 22" id="twitter-x" xmlns="http://www.w3.org/2000/svg"><g clip-path="url(#bvclip0_2868_1540)"><path d="M22.938 21.271h-6.59a.167.167 0 01-.148-.082l-5.587-7.465c-.165-.221-.322-.442-.487-.654l-.056-.082v.064l-7.363 7.953-.193.202a.119.119 0 01-.11.046H.46l8.735-9.434-.046-.065-3.81-5.09L.552.267V.212h6.664l.064.101 1.298 1.73L12.85 7.76v.056l.064-.074 3.314-3.571L19.882.276V.212h1.979L20.37 1.869l-6.544 7.078v.046a.313.313 0 010 .073c1.908 2.535 3.807 5.069 5.697 7.603l3.148 4.207c.092.12.184.23.267.35v.046zm-2.89-1.472l-.065-.083-3.037-3.967-5.274-7.152-5.145-6.876a.138.138 0 00-.12-.064H3.416s0 .055.055.074l1.84 2.512 5.588 7.465 6.047 8.026a.138.138 0 00.129.074h2.991l-.018-.01z"/></g><defs><clipPath id="bvclip0_2868_1540"><path transform="translate(.379 .102)" d="M0 0h22.726v21.17H0z"/></clipPath></defs></symbol><symbol viewBox="0 0 32 24" id="vr-glasses" xmlns="http://www.w3.org/2000/svg"><path d="M16 2.496c3.713 0 7.052 1.282 9.3 3.588 1.85.24 3.594.996 5.035 2.18C27.814 2.964 22.59 0 16 0 9.5 0 4.24 2.96 1.688 8.244A9.958 9.958 0 016.266 6.15c2.206-2.406 5.681-3.654 9.733-3.654z"/><path d="M24 24a7.976 7.976 0 01-5.572-2.26l-.004-.004a3.226 3.226 0 00-.552-.334A4.328 4.328 0 0016 21c-.828 0-1.457.206-1.87.402a3.227 3.227 0 00-.554.334l-.004.004A8.001 8.001 0 118 8h16a8 8 0 010 16z"/></symbol><symbol viewBox="0 0 24 24" id="whatsapp" xmlns="http://www.w3.org/2000/svg"><path d="M23.515 10.776v1.643c-.015.065-.035.13-.045.195-.067.466-.103.938-.203 1.396-1.146 5.236-5.773 9.043-11.14 9.168a11.675 11.675 0 01-5.67-1.313.556.556 0 00-.36-.04c-1.303.33-2.603.665-3.902 1.008-.667.175-1.331.36-1.997.54l-.094-.09a.98.98 0 00.05-.123c.51-1.842 1.016-3.685 1.531-5.525a.59.59 0 00-.054-.488C.304 14.713-.102 12.123.4 9.404c.497-2.7 1.823-4.946 3.962-6.677C7.044.556 10.128-.342 13.553.117c2.613.349 4.858 1.49 6.69 3.414 1.63 1.707 2.683 3.705 3.093 6.036.071.397.118.804.18 1.209zm-20.59 9.777c.089-.015.146-.02.202-.035 1.066-.276 2.134-.549 3.198-.831a.549.549 0 01.466.064c2.518 1.494 5.187 1.85 7.987.972 3.844-1.206 6.487-4.526 6.759-8.515.167-2.453-.492-4.695-2.063-6.604-2.421-2.939-5.564-4.126-9.321-3.524-2.627.423-4.708 1.806-6.223 3.988-1.479 2.13-2.021 4.494-1.622 7.059.21 1.346.723 2.582 1.476 3.719a.435.435 0 01.061.4c-.132.45-.255.904-.38 1.358-.178.639-.355 1.28-.54 1.95z"/><path d="M14.958 17.104c-.699.018-1.287-.214-1.89-.408-2.213-.718-3.891-2.143-5.31-3.931C7.153 12 6.565 11.23 6.206 10.31c-.552-1.415-.269-2.662.745-3.768.231-.252.531-.348.86-.356a4.88 4.88 0 01.684.03c.224.028.326.212.405.395.24.558.472 1.118.708 1.678.079.19.15.382.243.565a.558.558 0 01-.043.622c-.201.276-.397.557-.616.818-.305.366-.317.427-.065.838.928 1.512 2.202 2.622 3.855 3.284.33.133.476.105.699-.165.276-.335.549-.671.819-1.01.194-.245.309-.291.61-.203.065.019.13.041.193.068.72.32 1.445.641 2.17.955.225.098.324.26.315.499-.036.87-.327 1.59-1.13 2.051-.547.315-1.116.515-1.699.492z"/></symbol><symbol viewBox="0 0 19 14" id="wifi-o" xmlns="http://www.w3.org/2000/svg"><path d="M1 4.569a12.356 12.356 0 0117.373 0M3.207 6.885a9.113 9.113 0 0112.95 0M5.473 9.266a5.834 5.834 0 018.418 0M9.686 13.297a1.317 1.317 0 100-2.634 1.317 1.317 0 000 2.634z"/></symbol><symbol viewBox="0 0 76 76" id="yoga" xmlns="http://www.w3.org/2000/svg"><path d="M23.809 59.167l-3.292-1.196c-2.552-.927-3.788-2.657-3.837-5.37 0-.057-.025-.115-.045-.21-.658 0-1.338.116-1.963-.02-1.878-.412-3.14-1.55-3.546-3.456-.416-1.954.2-3.609 1.812-4.794 2.545-1.872 5.152-3.662 7.713-5.514a3.1 3.1 0 00.904-1.044c1.286-2.486 2.53-4.992 3.785-7.493 1.322-2.633 3.453-3.95 6.422-3.932 1.49.009 2.981.001 4.487-.037-2.41-.453-4.384-1.603-5.796-3.6-1.432-2.022-1.877-4.278-1.387-6.694.821-4.056 4.758-7.077 8.795-6.788 4.455.32 7.959 3.655 8.211 7.815.283 4.67-2.585 8.283-7.331 9.305 1.533 0 3.067-.036 4.6.015.777.026 1.576.12 2.317.344 1.773.536 3.04 1.71 3.869 3.347 1.33 2.626 2.643 5.26 3.984 7.879.151.295.396.579.667.773 2.6 1.868 5.227 3.699 7.824 5.574 1.585 1.144 2.238 2.743 1.92 4.648-.3 1.798-1.41 3.018-3.163 3.536-.748.222-1.577.18-2.388.258-.049.442-.052.98-.174 1.49-.427 1.777-1.484 3.064-3.195 3.757-1.26.51-2.552.95-3.877 1.438.138.402.303.776.392 1.166.454 2.003-.003 3.775-1.528 5.182-1.52 1.402-3.335 1.804-5.303 1.146-2.194-.734-4.362-1.549-6.531-2.352-.454-.17-.85-.18-1.31-.008-2.13.793-4.257 1.592-6.408 2.323-3.793 1.289-7.468-1.582-7.105-5.543.056-.621.296-1.228.479-1.943l-.002-.002zm13.714-30.404c-1.906 0-3.81.016-5.717-.004-1.919-.02-3.265.81-4.11 2.53-1.27 2.586-2.596 5.143-3.866 7.728a3.977 3.977 0 01-1.338 1.568c-2.609 1.82-5.194 3.676-7.795 5.51-.718.506-1.125 1.167-1.019 2.044.187 1.551 1.857 2.206 3.208 1.255a1000.53 1000.53 0 008.996-6.387c.369-.266.68-.665.903-1.066.549-.99 1.022-2.02 1.543-3.026.319-.614.888-.896 1.477-.775.625.13 1.03.63 1.075 1.339.011.164.003.33.003.494 0 3.273.01 6.546-.01 9.817-.004.455.105.678.57.837 1.876.643 3.73 1.353 5.603 2.003.278.097.651.09.933-.009 1.854-.644 3.687-1.348 5.544-1.983.482-.164.614-.389.61-.877-.022-3.292-.011-6.587-.01-9.88 0-1.031.326-1.568 1.044-1.735.679-.158 1.216.187 1.663 1.067.446.881.856 1.784 1.357 2.633.273.464.644.914 1.072 1.234 1.505 1.125 3.054 2.193 4.588 3.28 1.432 1.017 2.858 2.041 4.3 3.043.968.67 2.161.5 2.831-.365.64-.825.427-2.063-.483-2.802a7.434 7.434 0 00-.45-.33c-2.563-1.815-5.136-3.616-7.677-5.46a3.657 3.657 0 01-1.067-1.228 529.6 529.6 0 01-4.068-8.046c-.809-1.626-2.118-2.412-3.928-2.41-1.926.002-3.853 0-5.78 0l-.002.002zm8.806 35.61c1.347-.044 2.453-.956 2.69-2.258.232-1.276-.499-2.509-1.844-2.997a11423.78 11423.78 0 00-24.19-8.749c-1.515-.545-3.028.173-3.53 1.618-.493 1.42.232 2.875 1.724 3.416 8.024 2.906 16.049 5.805 24.076 8.7.346.124.715.18 1.074.268v.002zM37.532 11.66c-3.31-.014-5.99 2.607-6.006 5.873-.015 3.271 2.645 5.958 5.92 5.978 3.302.02 6.007-2.663 6.01-5.957.003-3.233-2.659-5.88-5.924-5.894zm3.917 42.525c.108.073.124.088.142.095 2.456.918 4.908 1.839 7.368 2.742.15.054.363.012.525-.046a262.42 262.42 0 004.25-1.544c1.574-.592 2.312-2.051 1.788-3.489-.53-1.457-2.065-2.095-3.677-1.517-1.71.612-3.417 1.235-5.126 1.853-1.724.625-3.45 1.248-5.272 1.906h.002zm-14.966 5.947c-.708.986-.725 2.123-.084 3.042a2.678 2.678 0 003.012 1.038c.866-.272 1.717-.6 2.57-.907.487-.175.97-.362 1.61-.602l-7.11-2.573.002.002zm20.354-15.5v4.79l4.463-1.609-4.463-3.181zm-23.153 3.192c1.552.558 2.992 1.074 4.46 1.603v-4.776l-4.46 3.173z"/></symbol><symbol viewBox="0 0 26 18" id="youtube" xmlns="http://www.w3.org/2000/svg"><path d="M13.084 0h.144c1.336.005 8.105.053 9.93.537a3.278 3.278 0 011.458.834c.403.399.693.896.841 1.44.164.608.28 1.414.358 2.245l.016.167.036.416.013.167c.105 1.464.118 2.834.12 3.134v.12a50.64 50.64 0 01-.133 3.3l-.013.167-.015.167c-.081.916-.201 1.826-.382 2.495a3.204 3.204 0 01-.84 1.44c-.404.4-.907.687-1.46.834-1.884.5-9.05.535-10.042.537h-.231c-.502 0-2.58-.01-4.757-.083l-.276-.01-.142-.006-.277-.011-.278-.012c-1.804-.078-3.522-.205-4.313-.416a3.273 3.273 0 01-1.458-.833 3.203 3.203 0 01-.842-1.44c-.18-.668-.3-1.579-.382-2.495l-.013-.168-.013-.167A49.564 49.564 0 010 9.1v-.197c.003-.345.016-1.535.104-2.848l.011-.165.005-.083.013-.167.036-.416.016-.167c.078-.831.194-1.638.358-2.245a3.204 3.204 0 01.84-1.44c.404-.4.907-.687 1.46-.834C3.632.328 5.35.2 7.154.12l.278-.01.28-.01.139-.005.278-.01C9.675.033 11.223.006 12.77.001h.314V0zM10.4 5.141v7.716l6.755-3.856-6.755-3.86z"/></symbol><symbol viewBox="0 0 24 24" id="zalo" xmlns="http://www.w3.org/2000/svg"><g clip-path="url(#cbclip0_2898_172)"><path d="M21.91 4.922c-.74-1.447-1.87-2.54-3.316-3.316C17.148.83 15.562.442 12.813.442h-2.01C8.05.442 6.43.83 5.018 1.606c-1.446.74-2.54 1.87-3.316 3.316C.927 6.368.54 7.955.54 10.704v2.01c0 2.752.388 4.373 1.164 5.783.74 1.447 1.87 2.54 3.316 3.316 1.446.776 3.033 1.164 5.782 1.164h2.01c2.752 0 4.373-.388 5.784-1.164 1.446-.74 2.54-1.87 3.315-3.316.776-1.446 1.164-3.033 1.164-5.782v-2.01c0-2.752-.388-4.373-1.164-5.783zm.774 7.934c0 2.716-.388 4.266-1.164 5.677a2.719 2.719 0 01-1.093 1.093c-3.774 2.046-9.487 1.975-13.259-.106-.917.459-2.187.741-3.245.635-.176 0-.211-.07-.106-.212.741-.74 1.2-1.975.706-2.68v-.036c-3.137-4.195-2.855-11.882.846-15.41.141-.14.283-.211.459-.282 1.2-.493 2.645-.74 4.795-.74h1.975c2.716 0 4.372.352 5.783 1.093a7.585 7.585 0 013.245 3.245c.74 1.411 1.058 3.034 1.058 5.712v2.01z"/><path d="M9.426 9.119c.035-.036.106-.141.14-.177v-.035c.177-.247.213-.458.213-.705V8.06H5.372v.952H8.44l-3.033 3.739c-.106.14-.177.282-.177.564v.247h4.163a.391.391 0 00.388-.388v-.494H6.57l2.858-3.56h-.002zm5.678 4.125c0 .176.14.317.317.317h.635v-5.5h-.953v5.183zm3.739-3.984c-1.2 0-2.187.987-2.187 2.187 0 1.199.988 2.187 2.187 2.187 1.2 0 2.187-.988 2.187-2.187-.035-1.235-.988-2.187-2.187-2.187zm0 3.454c-.705 0-1.27-.564-1.27-1.27 0-.705.565-1.27 1.27-1.27.706 0 1.27.565 1.27 1.27 0 .706-.564 1.27-1.27 1.27zm-5.396-2.998c-.353-.247-.811-.423-1.27-.423-1.2 0-2.152.952-2.152 2.152 0 1.199.953 2.151 2.152 2.151.494 0 .917-.14 1.27-.423 0 .212.176.388.388.388h.494V9.399h-.882v.317zm-1.27 2.998c-.705 0-1.27-.564-1.27-1.27 0-.705.565-1.27 1.27-1.27.706 0 1.27.565 1.27 1.27 0 .706-.564 1.27-1.27 1.27z"/></g><defs><clipPath id="cbclip0_2898_172"><path transform="translate(-.006 .102)" d="M0 0h23.527v23.17H0z"/></clipPath></defs></symbol></svg>